<?xml version="1.0" encoding="UTF-8"?>
<!DOCTYPE svg PUBLIC "-//W3C//DTD SVG 1.1//EN" "http://www.w3.org/Graphics/SVG/1.1/DTD/svg11.dtd">
<!-- Creator: CorelDRAW 2018 (64-Bit) -->
<svg xmlns="http://www.w3.org/2000/svg" xml:space="preserve" width="6.7732mm" height="6.7732mm" version="1.1" style="shape-rendering:geometricPrecision; text-rendering:geometricPrecision; image-rendering:optimizeQuality; fill-rule:evenodd; clip-rule:evenodd"
viewBox="0 0 677.32 677.32"
 xmlns:xlink="http://www.w3.org/1999/xlink">
 <g id="Слой_x0020_1">
  <path class="fil0" d="M6.04 174.19c-0.82,8.77 -3.87,14.7 -3.94,26.86 -0.08,10.06 0.02,20.11 0.04,30.17 0.03,20.77 0.38,41.82 0.08,62.55 -1.9,41.74 -0.04,88.52 0,130.91 0,33.34 -1.35,104.9 0.18,133.29 1.95,36.32 30.88,61.31 70.38,61.36l530.65 0c37.75,-0.09 68.18,-20.31 71.66,-60.3l0.32 -293.07c0,-30.74 3,-65.17 -5.19,-93.57l-4.35 -7.17c-1.33,-2.37 -3,-5.2 -4.49,-7.05 -31.41,-39.33 -83.21,-20.74 -134.8,-25.05 -3.62,-22.85 -2.33,-34.52 -15.86,-50.25 -26.75,-31.16 -65.8,-24.05 -106.6,-24.37 -28.15,-0.25 -179.03,-1.39 -195.18,0.89 -38.46,5.48 -55.05,31.48 -56.55,73.26 -7.58,1.85 -37.33,0.75 -47.18,0.71 -32.2,-0.14 -53.88,-4.26 -78.58,14.61 -3.6,2.75 -9.19,8.9 -11.43,11.73 -2.31,2.89 -2.5,3.45 -4.36,7.12 -0.46,0.91 -1.52,3.23 -1.95,3.92 -2.44,4.01 -0.55,1.63 -2.85,3.45zm258.35 190.04l0 0c-2.28,-68.93 65.72,-101.4 116.69,-68.22 9.95,6.47 18.95,17.03 24.34,27.77 1,1.98 1.66,3.68 2.71,6.39l2.84 5.78c0.13,0.21 0.38,0.55 0.57,0.79 -0.44,4.81 1.69,11.72 1.97,17.25 0.8,17.22 -3.99,32.48 -13.14,46.05 -39.24,58.19 -131.92,31.87 -135.98,-35.81zm221.29 -33.75l0 0c16.83,89 -47.6,163.4 -123.82,174.89 -64.38,9.72 -122.72,-21.99 -152.33,-72.63 -5.97,-10.24 -20.55,-42.46 -18.17,-56.71l-1.4 -3.52c-0.24,-0.92 -0.49,-3.52 -0.55,-4.52 -5.51,-77.04 49.73,-146.01 126.31,-158.03 81.67,-12.82 160.05,46.25 169.96,120.52z" fill="white"/>
 </g>
</svg>
