<?xml version="1.0" encoding="UTF-8"?>
<svg xmlns="http://www.w3.org/2000/svg" xml:space="preserve" width="96.9432mm" height="88.7306mm" version="1.1" style="shape-rendering:geometricPrecision; text-rendering:geometricPrecision; image-rendering:optimizeQuality; fill-rule:evenodd; clip-rule:evenodd"
viewBox="0 0 9694.32 8873.06"
 xmlns:xlink="http://www.w3.org/1999/xlink">
 <g id="Слой_x0020_1">
  <metadata id="CorelCorpID_0Corel-Layer"/>
  <path class="fil0" d="M4847.16 -0.41c2450.46,0 4436.94,1986.48 4436.94,4436.94 0,2450.46 -1986.48,4436.94 -4436.94,4436.94 -2450.46,0 -4436.94,-1986.48 -4436.94,-4436.94 0,-2450.46 1986.48,-4436.94 4436.94,-4436.94zm0 144.59c2370.61,0 4292.35,1921.74 4292.35,4292.35 0,2370.61 -1921.74,4292.35 -4292.35,4292.35 -2370.61,0 -4292.35,-1921.74 -4292.35,-4292.35 0,-2370.61 1921.74,-4292.35 4292.35,-4292.35z" fill="white" />
  <path class="fil1" d="M8951.87 1845.4c488.46,775.04 743.78,1665.58 743.78,2581.56 0,994.3 -300.93,1956.57 -870.12,2771.97l-14.93 21.38 -147.58 0 55.32 -78.74c560.26,-797.48 856.62,-1740.11 856.62,-2714.61 0,-897.62 -251.36,-1769.92 -732.1,-2528.13l-48.68 -76.77 142.98 0 14.71 23.34zm-8083.08 5353.53c-569.19,-815.4 -870.12,-1777.67 -870.12,-2771.97 0,-915.98 255.32,-1806.52 743.78,-2581.56l14.71 -23.34 142.98 0 -48.68 76.77c-480.74,758.21 -732.1,1630.51 -732.1,2528.13 0,974.5 296.36,1917.13 856.62,2714.61l55.32 78.74 -147.58 0 -14.93 -21.38z" fill="white" />
 </g>
</svg>
